<svg width="702" height="132" viewBox="0 0 702 132" fill="none" xmlns="http://www.w3.org/2000/svg">
<path d="M700.5 0.5H0.5V130.5H700.5V0.5Z" fill="#CCCCCC"/>
<path d="M50.5 50.5H250.5" stroke="#1A1A1A" stroke-miterlimit="10"/>
<path d="M10.5 50.5H50.5" stroke="#1A1A1A" stroke-width="2" stroke-miterlimit="10" stroke-dasharray="2 6"/>
<path d="M250.5 50.5H290.5" stroke="#1A1A1A" stroke-width="2" stroke-miterlimit="10" stroke-dasharray="2 6"/>
<path d="M290.5 50.5H410.5" stroke="#1A1A1A" stroke-miterlimit="10"/>
<path d="M50.5 50.5V10.5" stroke="#1A1A1A" stroke-miterlimit="10"/>
<path d="M90.5 50.5V10.5" stroke="#1A1A1A" stroke-miterlimit="10"/>
<path d="M130.5 50.5V10.5" stroke="#1A1A1A" stroke-miterlimit="10"/>
<path d="M170.5 50.5V10.5" stroke="#1A1A1A" stroke-miterlimit="10"/>
<path d="M210.5 50.5V10.5" stroke="#1A1A1A" stroke-miterlimit="10"/>
<path d="M250.5 50.5V10.5" stroke="#1A1A1A" stroke-miterlimit="10"/>
<path d="M290.5 50.5V10.5" stroke="#1A1A1A" stroke-miterlimit="10"/>
<path d="M330.5 50.5V10.5" stroke="#1A1A1A" stroke-miterlimit="10"/>
<path d="M370.5 50.5V10.5" stroke="#1A1A1A" stroke-miterlimit="10"/>
<path d="M410.5 50.5V10.5" stroke="#1A1A1A" stroke-miterlimit="10"/>
<path d="M410.5 50.5H490.5" stroke="#1A1A1A" stroke-width="2" stroke-miterlimit="10" stroke-dasharray="2 6"/>
<path d="M490.5 50.5H650.5" stroke="#1A1A1A" stroke-miterlimit="10"/>
<path d="M490.5 50.5V10.5" stroke="#1A1A1A" stroke-miterlimit="10"/>
<path d="M530.5 50.5V10.5" stroke="#1A1A1A" stroke-miterlimit="10"/>
<path d="M570.5 50.5V10.5" stroke="#1A1A1A" stroke-miterlimit="10"/>
<path d="M610.5 50.5V10.5" stroke="#1A1A1A" stroke-miterlimit="10"/>
<path d="M650.5 50.5V10.5" stroke="#1A1A1A" stroke-miterlimit="10"/>
<path d="M650.5 50.5H690.5" stroke="#1A1A1A" stroke-width="2" stroke-miterlimit="10" stroke-dasharray="2 6"/>
<path d="M50.5 70.5V80.5C50.5 87.1667 53.8333 90.5 60.5 90.5H400.5C407.167 90.5 410.5 87.1667 410.5 80.5V70.5" stroke="#1A1A1A" stroke-miterlimit="10"/>
<path d="M173.213 101.754H174.285V108H173.213V101.754ZM173.213 99.3926H174.285V100.588H173.213V99.3926ZM175.885 101.725H176.887V102.615C177.184 102.248 177.498 101.984 177.83 101.824C178.162 101.664 178.531 101.584 178.938 101.584C179.828 101.584 180.43 101.895 180.742 102.516C180.914 102.855 181 103.342 181 103.975V108H179.928V104.045C179.928 103.662 179.871 103.354 179.758 103.119C179.57 102.729 179.23 102.533 178.738 102.533C178.488 102.533 178.283 102.559 178.123 102.609C177.834 102.695 177.58 102.867 177.361 103.125C177.186 103.332 177.07 103.547 177.016 103.77C176.965 103.988 176.939 104.303 176.939 104.713V108H175.885V101.725ZM185.213 107.291C185.705 107.291 186.113 107.086 186.438 106.676C186.766 106.262 186.93 105.645 186.93 104.824C186.93 104.324 186.857 103.895 186.713 103.535C186.439 102.844 185.939 102.498 185.213 102.498C184.482 102.498 183.982 102.863 183.713 103.594C183.568 103.984 183.496 104.48 183.496 105.082C183.496 105.566 183.568 105.979 183.713 106.318C183.986 106.967 184.486 107.291 185.213 107.291ZM182.482 101.754H183.508V102.586C183.719 102.301 183.949 102.08 184.199 101.924C184.555 101.689 184.973 101.572 185.453 101.572C186.164 101.572 186.768 101.846 187.264 102.393C187.76 102.936 188.008 103.713 188.008 104.725C188.008 106.092 187.65 107.068 186.936 107.654C186.482 108.025 185.955 108.211 185.354 108.211C184.881 108.211 184.484 108.107 184.164 107.9C183.977 107.783 183.768 107.582 183.537 107.297V110.502H182.482V101.754ZM190.299 101.725V105.891C190.299 106.211 190.35 106.473 190.451 106.676C190.639 107.051 190.988 107.238 191.5 107.238C192.234 107.238 192.734 106.91 193 106.254C193.145 105.902 193.217 105.42 193.217 104.807V101.725H194.271V108H193.275L193.287 107.074C193.15 107.312 192.98 107.514 192.777 107.678C192.375 108.006 191.887 108.17 191.312 108.17C190.418 108.17 189.809 107.871 189.484 107.273C189.309 106.953 189.221 106.525 189.221 105.99V101.725H190.299ZM196.135 99.9727H197.201V101.725H198.203V102.586H197.201V106.682C197.201 106.9 197.275 107.047 197.424 107.121C197.506 107.164 197.643 107.186 197.834 107.186C197.885 107.186 197.939 107.186 197.998 107.186C198.057 107.182 198.125 107.176 198.203 107.168V108C198.082 108.035 197.955 108.061 197.822 108.076C197.693 108.092 197.553 108.1 197.4 108.1C196.908 108.1 196.574 107.975 196.398 107.725C196.223 107.471 196.135 107.143 196.135 106.74V102.586H195.285V101.725H196.135V99.9727ZM208.598 99.804C208.518 100.428 208.414 101.08 208.286 101.76C208.166 102.44 208.01 103.1 207.818 103.74C207.578 104.564 207.31 105.252 207.014 105.804C206.726 106.356 206.414 106.772 206.078 107.052C205.742 107.332 205.39 107.472 205.022 107.472C204.67 107.472 204.33 107.344 204.002 107.088C203.674 106.832 203.406 106.464 203.198 105.984C202.99 105.496 202.886 104.924 202.886 104.268C202.886 103.612 203.018 102.992 203.282 102.408C203.554 101.824 203.926 101.308 204.398 100.86C204.878 100.404 205.438 100.044 206.078 99.78C206.718 99.516 207.402 99.384 208.13 99.384C208.834 99.384 209.466 99.5 210.026 99.732C210.594 99.964 211.078 100.284 211.478 100.692C211.878 101.092 212.186 101.56 212.402 102.096C212.618 102.624 212.726 103.192 212.726 103.8C212.726 104.64 212.546 105.38 212.186 106.02C211.834 106.66 211.322 107.18 210.65 107.58C209.986 107.98 209.178 108.244 208.226 108.372L207.662 107.484C207.854 107.46 208.038 107.436 208.214 107.412C208.39 107.388 208.55 107.36 208.694 107.328C209.078 107.24 209.45 107.104 209.81 106.92C210.178 106.728 210.506 106.488 210.794 106.2C211.082 105.904 211.31 105.556 211.478 105.156C211.654 104.748 211.742 104.284 211.742 103.764C211.742 103.276 211.662 102.824 211.502 102.408C211.342 101.984 211.106 101.612 210.794 101.292C210.482 100.972 210.102 100.72 209.654 100.536C209.206 100.352 208.694 100.26 208.118 100.26C207.462 100.26 206.866 100.38 206.33 100.62C205.802 100.86 205.35 101.176 204.974 101.568C204.606 101.952 204.322 102.376 204.122 102.84C203.922 103.296 203.822 103.744 203.822 104.184C203.822 104.688 203.886 105.104 204.014 105.432C204.15 105.752 204.31 105.988 204.494 106.14C204.686 106.292 204.874 106.368 205.058 106.368C205.25 106.368 205.446 106.276 205.646 106.092C205.846 105.9 206.05 105.596 206.258 105.18C206.466 104.756 206.67 104.208 206.87 103.536C207.046 102.96 207.194 102.348 207.314 101.7C207.442 101.052 207.534 100.416 207.59 99.792L208.598 99.804ZM214.55 102.936H218.57V103.74H214.55V102.936ZM215.474 101.004H218.45V101.772H215.474V101.004ZM215.834 103.344H216.65V108.936H215.834V103.344ZM218.162 102.936H218.966V106.488C218.966 106.688 218.942 106.852 218.894 106.98C218.846 107.1 218.75 107.196 218.606 107.268C218.47 107.332 218.29 107.372 218.066 107.388C217.842 107.404 217.57 107.412 217.25 107.412C217.242 107.292 217.214 107.16 217.166 107.016C217.126 106.872 217.078 106.744 217.022 106.632C217.262 106.64 217.47 106.644 217.646 106.644C217.822 106.644 217.942 106.64 218.006 106.632C218.07 106.632 218.11 106.62 218.126 106.596C218.15 106.572 218.162 106.532 218.162 106.476V102.936ZM219.182 98.484H225.242V99.264H219.182V98.484ZM220.49 102.936V104.112H224.006V102.936H220.49ZM220.49 104.784V105.972H224.006V104.784H220.49ZM220.49 101.112V102.264H224.006V101.112H220.49ZM219.65 100.404H224.87V106.668H219.65V100.404ZM221.762 98.856L222.782 98.988C222.686 99.332 222.586 99.68 222.482 100.032C222.378 100.384 222.278 100.688 222.182 100.944L221.378 100.788C221.426 100.604 221.474 100.4 221.522 100.176C221.578 99.944 221.626 99.712 221.666 99.48C221.706 99.248 221.738 99.04 221.762 98.856ZM220.85 106.884L221.63 107.352C221.414 107.56 221.154 107.768 220.85 107.976C220.546 108.184 220.222 108.376 219.878 108.552C219.542 108.728 219.214 108.876 218.894 108.996C218.822 108.916 218.726 108.816 218.606 108.696C218.486 108.576 218.378 108.476 218.282 108.396C218.602 108.276 218.926 108.136 219.254 107.976C219.582 107.808 219.886 107.632 220.166 107.448C220.446 107.256 220.674 107.068 220.85 106.884ZM222.71 107.412L223.382 106.944C223.63 107.08 223.886 107.24 224.15 107.424C224.422 107.608 224.678 107.792 224.918 107.976C225.166 108.16 225.37 108.328 225.53 108.48L224.81 108.996C224.666 108.844 224.474 108.676 224.234 108.492C224.002 108.308 223.75 108.12 223.478 107.928C223.206 107.736 222.95 107.564 222.71 107.412ZM216.446 97.92H216.938V98.124H217.202V98.364C217.042 98.7 216.842 99.072 216.602 99.48C216.362 99.888 216.074 100.304 215.738 100.728C215.41 101.152 215.03 101.564 214.598 101.964C214.566 101.892 214.518 101.816 214.454 101.736C214.39 101.648 214.322 101.564 214.25 101.484C214.186 101.404 214.126 101.348 214.07 101.316C214.454 100.972 214.798 100.608 215.102 100.224C215.406 99.832 215.67 99.436 215.894 99.036C216.118 98.636 216.302 98.264 216.446 97.92ZM216.554 97.92H217.238C217.502 98.152 217.778 98.412 218.066 98.7C218.362 98.98 218.634 99.26 218.882 99.54C219.138 99.82 219.346 100.072 219.506 100.296L218.906 101.064C218.762 100.832 218.566 100.568 218.318 100.272C218.078 99.968 217.818 99.668 217.538 99.372C217.266 99.076 216.998 98.816 216.734 98.592H216.554V97.92ZM226.346 100.848H229.55V101.7H226.346V100.848ZM227.618 98.064H228.458V106.104H227.618V98.064ZM226.262 106.452C226.686 106.276 227.19 106.052 227.774 105.78C228.366 105.5 228.966 105.208 229.574 104.904L229.826 105.708C229.274 105.996 228.714 106.284 228.146 106.572C227.586 106.852 227.07 107.108 226.598 107.34L226.262 106.452ZM229.754 99.696H237.218V100.524H229.754V99.696ZM229.358 106.764C229.718 106.684 230.126 106.588 230.582 106.476C231.046 106.356 231.538 106.228 232.058 106.092C232.578 105.956 233.098 105.82 233.618 105.684L233.702 106.44C232.982 106.648 232.262 106.856 231.542 107.064C230.822 107.272 230.17 107.46 229.586 107.628L229.358 106.764ZM233.774 97.932H234.638C234.638 98.876 234.654 99.784 234.686 100.656C234.718 101.52 234.766 102.332 234.83 103.092C234.894 103.844 234.974 104.528 235.07 105.144C235.174 105.752 235.29 106.28 235.418 106.728C235.546 107.168 235.686 107.508 235.838 107.748C235.99 107.98 236.15 108.096 236.318 108.096C236.438 108.096 236.526 107.964 236.582 107.7C236.646 107.436 236.69 106.992 236.714 106.368C236.802 106.464 236.906 106.556 237.026 106.644C237.154 106.724 237.266 106.788 237.362 106.836C237.322 107.372 237.258 107.792 237.17 108.096C237.09 108.4 236.974 108.616 236.822 108.744C236.67 108.88 236.466 108.948 236.21 108.948C235.898 108.948 235.622 108.812 235.382 108.54C235.142 108.276 234.93 107.896 234.746 107.4C234.57 106.904 234.418 106.32 234.29 105.648C234.17 104.968 234.074 104.216 234.002 103.392C233.93 102.568 233.874 101.696 233.834 100.776C233.802 99.848 233.782 98.9 233.774 97.932ZM235.118 98.4L235.634 97.944C235.898 98.12 236.17 98.328 236.45 98.568C236.738 98.8 236.958 99.004 237.11 99.18L236.558 99.708C236.406 99.516 236.194 99.3 235.922 99.06C235.65 98.812 235.382 98.592 235.118 98.4ZM236.174 101.652L236.99 101.82C236.574 103.38 235.998 104.752 235.262 105.936C234.526 107.12 233.618 108.092 232.538 108.852C232.498 108.804 232.438 108.74 232.358 108.66C232.278 108.58 232.194 108.504 232.106 108.432C232.026 108.36 231.95 108.304 231.878 108.264C232.966 107.576 233.862 106.672 234.566 105.552C235.27 104.424 235.806 103.124 236.174 101.652ZM230.81 102.384V104.412H232.382V102.384H230.81ZM230.114 101.652H233.114V105.144H230.114V101.652ZM244.721 99.252C244.107 100.443 243.709 101.32 243.525 101.883C243.248 102.738 243.109 103.727 243.109 104.848C243.109 105.98 243.268 107.016 243.584 107.953C243.779 108.531 244.164 109.363 244.738 110.449H244.029C243.459 109.559 243.105 108.99 242.969 108.744C242.832 108.498 242.684 108.164 242.523 107.742C242.305 107.164 242.152 106.547 242.066 105.891C242.023 105.551 242.002 105.227 242.002 104.918C242.002 103.762 242.184 102.732 242.547 101.83C242.777 101.256 243.258 100.396 243.988 99.252H244.721ZM246.314 102.059V101.25C247.076 101.176 247.607 101.053 247.908 100.881C248.209 100.705 248.434 100.293 248.582 99.6445H249.414V108H248.289V102.059H246.314ZM255.355 99.5742C256.293 99.5742 256.945 99.8184 257.312 100.307C257.684 100.791 257.869 101.291 257.869 101.807H256.826C256.764 101.475 256.664 101.215 256.527 101.027C256.273 100.676 255.889 100.5 255.373 100.5C254.783 100.5 254.314 100.773 253.967 101.32C253.619 101.863 253.426 102.643 253.387 103.658C253.629 103.303 253.934 103.037 254.301 102.861C254.637 102.705 255.012 102.627 255.426 102.627C256.129 102.627 256.742 102.852 257.266 103.301C257.789 103.75 258.051 104.42 258.051 105.311C258.051 106.072 257.803 106.748 257.307 107.338C256.811 107.924 256.104 108.217 255.186 108.217C254.4 108.217 253.723 107.92 253.152 107.326C252.582 106.729 252.297 105.725 252.297 104.314C252.297 103.271 252.424 102.387 252.678 101.66C253.166 100.27 254.059 99.5742 255.355 99.5742ZM255.279 107.279C255.834 107.279 256.248 107.094 256.521 106.723C256.799 106.348 256.938 105.906 256.938 105.398C256.938 104.969 256.814 104.561 256.568 104.174C256.322 103.783 255.875 103.588 255.227 103.588C254.773 103.588 254.375 103.738 254.031 104.039C253.691 104.34 253.521 104.793 253.521 105.398C253.521 105.93 253.676 106.377 253.984 106.74C254.297 107.1 254.729 107.279 255.279 107.279ZM262.557 99.3633H263.582V102.486C263.812 102.186 264.088 101.957 264.408 101.801C264.729 101.641 265.076 101.561 265.451 101.561C266.232 101.561 266.865 101.83 267.35 102.369C267.838 102.904 268.082 103.695 268.082 104.742C268.082 105.734 267.842 106.559 267.361 107.215C266.881 107.871 266.215 108.199 265.363 108.199C264.887 108.199 264.484 108.084 264.156 107.854C263.961 107.717 263.752 107.498 263.529 107.197V108H262.557V99.3633ZM265.299 107.268C265.869 107.268 266.295 107.041 266.576 106.588C266.861 106.135 267.004 105.537 267.004 104.795C267.004 104.135 266.861 103.588 266.576 103.154C266.295 102.721 265.879 102.504 265.328 102.504C264.848 102.504 264.426 102.682 264.062 103.037C263.703 103.393 263.523 103.979 263.523 104.795C263.523 105.385 263.598 105.863 263.746 106.23C264.023 106.922 264.541 107.268 265.299 107.268ZM273.238 101.725H274.404C274.256 102.127 273.926 103.045 273.414 104.479C273.031 105.557 272.711 106.436 272.453 107.115C271.844 108.717 271.414 109.693 271.164 110.045C270.914 110.396 270.484 110.572 269.875 110.572C269.727 110.572 269.611 110.566 269.529 110.555C269.451 110.543 269.354 110.521 269.236 110.49V109.529C269.42 109.58 269.553 109.611 269.635 109.623C269.717 109.635 269.789 109.641 269.852 109.641C270.047 109.641 270.189 109.607 270.279 109.541C270.373 109.479 270.451 109.4 270.514 109.307C270.533 109.275 270.604 109.115 270.725 108.826C270.846 108.537 270.934 108.322 270.988 108.182L268.668 101.725H269.863L271.545 106.834L273.238 101.725ZM275.529 99.9727H276.596V101.725H277.598V102.586H276.596V106.682C276.596 106.9 276.67 107.047 276.818 107.121C276.9 107.164 277.037 107.186 277.229 107.186C277.279 107.186 277.334 107.186 277.393 107.186C277.451 107.182 277.52 107.176 277.598 107.168V108C277.477 108.035 277.35 108.061 277.217 108.076C277.088 108.092 276.947 108.1 276.795 108.1C276.303 108.1 275.969 107.975 275.793 107.725C275.617 107.471 275.529 107.143 275.529 106.74V102.586H274.68V101.725H275.529V99.9727ZM281.271 101.584C281.717 101.584 282.148 101.689 282.566 101.9C282.984 102.107 283.303 102.377 283.521 102.709C283.732 103.025 283.873 103.395 283.943 103.816C284.006 104.105 284.037 104.566 284.037 105.199H279.438C279.457 105.836 279.607 106.348 279.889 106.734C280.17 107.117 280.605 107.309 281.195 107.309C281.746 107.309 282.186 107.127 282.514 106.764C282.701 106.553 282.834 106.309 282.912 106.031H283.949C283.922 106.262 283.83 106.52 283.674 106.805C283.521 107.086 283.35 107.316 283.158 107.496C282.838 107.809 282.441 108.02 281.969 108.129C281.715 108.191 281.428 108.223 281.107 108.223C280.326 108.223 279.664 107.939 279.121 107.373C278.578 106.803 278.307 106.006 278.307 104.982C278.307 103.975 278.58 103.156 279.127 102.527C279.674 101.898 280.389 101.584 281.271 101.584ZM282.953 104.361C282.91 103.904 282.811 103.539 282.654 103.266C282.365 102.758 281.883 102.504 281.207 102.504C280.723 102.504 280.316 102.68 279.988 103.031C279.66 103.379 279.486 103.822 279.467 104.361H282.953ZM284.98 110.449C285.602 109.238 286.002 108.355 286.182 107.801C286.455 106.961 286.592 105.977 286.592 104.848C286.592 103.719 286.434 102.686 286.117 101.748C285.922 101.17 285.537 100.338 284.963 99.252H285.672C286.273 100.213 286.637 100.807 286.762 101.033C286.891 101.256 287.029 101.564 287.178 101.959C287.365 102.447 287.498 102.93 287.576 103.406C287.658 103.883 287.699 104.342 287.699 104.783C287.699 105.939 287.516 106.971 287.148 107.877C286.918 108.459 286.439 109.316 285.713 110.449H284.98Z" fill="#1A1A1A"/>
<path d="M519.07 101.725H520.072V102.615C520.369 102.248 520.684 101.984 521.016 101.824C521.348 101.664 521.717 101.584 522.123 101.584C523.014 101.584 523.615 101.895 523.928 102.516C524.1 102.855 524.186 103.342 524.186 103.975V108H523.113V104.045C523.113 103.662 523.057 103.354 522.943 103.119C522.756 102.729 522.416 102.533 521.924 102.533C521.674 102.533 521.469 102.559 521.309 102.609C521.02 102.695 520.766 102.867 520.547 103.125C520.371 103.332 520.256 103.547 520.201 103.77C520.15 103.988 520.125 104.303 520.125 104.713V108H519.07V101.725ZM526.805 101.725V105.891C526.805 106.211 526.855 106.473 526.957 106.676C527.145 107.051 527.494 107.238 528.006 107.238C528.74 107.238 529.24 106.91 529.506 106.254C529.65 105.902 529.723 105.42 529.723 104.807V101.725H530.777V108H529.781L529.793 107.074C529.656 107.312 529.486 107.514 529.283 107.678C528.881 108.006 528.393 108.17 527.818 108.17C526.924 108.17 526.314 107.871 525.99 107.273C525.814 106.953 525.727 106.525 525.727 105.99V101.725H526.805ZM532.43 101.725H533.473V102.615C533.723 102.307 533.949 102.082 534.152 101.941C534.5 101.703 534.895 101.584 535.336 101.584C535.836 101.584 536.238 101.707 536.543 101.953C536.715 102.094 536.871 102.301 537.012 102.574C537.246 102.238 537.521 101.99 537.838 101.83C538.154 101.666 538.51 101.584 538.904 101.584C539.748 101.584 540.322 101.889 540.627 102.498C540.791 102.826 540.873 103.268 540.873 103.822V108H539.777V103.641C539.777 103.223 539.672 102.936 539.461 102.779C539.254 102.623 539 102.545 538.699 102.545C538.285 102.545 537.928 102.684 537.627 102.961C537.33 103.238 537.182 103.701 537.182 104.35V108H536.109V103.904C536.109 103.479 536.059 103.168 535.957 102.973C535.797 102.68 535.498 102.533 535.061 102.533C534.662 102.533 534.299 102.688 533.971 102.996C533.646 103.305 533.484 103.863 533.484 104.672V108H532.43V101.725ZM551.76 99.804C551.68 100.428 551.576 101.08 551.448 101.76C551.328 102.44 551.172 103.1 550.98 103.74C550.74 104.564 550.472 105.252 550.176 105.804C549.888 106.356 549.576 106.772 549.24 107.052C548.904 107.332 548.552 107.472 548.184 107.472C547.832 107.472 547.492 107.344 547.164 107.088C546.836 106.832 546.568 106.464 546.36 105.984C546.152 105.496 546.048 104.924 546.048 104.268C546.048 103.612 546.18 102.992 546.444 102.408C546.716 101.824 547.088 101.308 547.56 100.86C548.04 100.404 548.6 100.044 549.24 99.78C549.88 99.516 550.564 99.384 551.292 99.384C551.996 99.384 552.628 99.5 553.188 99.732C553.756 99.964 554.24 100.284 554.64 100.692C555.04 101.092 555.348 101.56 555.564 102.096C555.78 102.624 555.888 103.192 555.888 103.8C555.888 104.64 555.708 105.38 555.348 106.02C554.996 106.66 554.484 107.18 553.812 107.58C553.148 107.98 552.34 108.244 551.388 108.372L550.824 107.484C551.016 107.46 551.2 107.436 551.376 107.412C551.552 107.388 551.712 107.36 551.856 107.328C552.24 107.24 552.612 107.104 552.972 106.92C553.34 106.728 553.668 106.488 553.956 106.2C554.244 105.904 554.472 105.556 554.64 105.156C554.816 104.748 554.904 104.284 554.904 103.764C554.904 103.276 554.824 102.824 554.664 102.408C554.504 101.984 554.268 101.612 553.956 101.292C553.644 100.972 553.264 100.72 552.816 100.536C552.368 100.352 551.856 100.26 551.28 100.26C550.624 100.26 550.028 100.38 549.492 100.62C548.964 100.86 548.512 101.176 548.136 101.568C547.768 101.952 547.484 102.376 547.284 102.84C547.084 103.296 546.984 103.744 546.984 104.184C546.984 104.688 547.048 105.104 547.176 105.432C547.312 105.752 547.472 105.988 547.656 106.14C547.848 106.292 548.036 106.368 548.22 106.368C548.412 106.368 548.608 106.276 548.808 106.092C549.008 105.9 549.212 105.596 549.42 105.18C549.628 104.756 549.832 104.208 550.032 103.536C550.208 102.96 550.356 102.348 550.476 101.7C550.604 101.052 550.696 100.416 550.752 99.792L551.76 99.804ZM557.712 102.936H561.732V103.74H557.712V102.936ZM558.636 101.004H561.612V101.772H558.636V101.004ZM558.996 103.344H559.812V108.936H558.996V103.344ZM561.324 102.936H562.128V106.488C562.128 106.688 562.104 106.852 562.056 106.98C562.008 107.1 561.912 107.196 561.768 107.268C561.632 107.332 561.452 107.372 561.228 107.388C561.004 107.404 560.732 107.412 560.412 107.412C560.404 107.292 560.376 107.16 560.328 107.016C560.288 106.872 560.24 106.744 560.184 106.632C560.424 106.64 560.632 106.644 560.808 106.644C560.984 106.644 561.104 106.64 561.168 106.632C561.232 106.632 561.272 106.62 561.288 106.596C561.312 106.572 561.324 106.532 561.324 106.476V102.936ZM562.344 98.484H568.404V99.264H562.344V98.484ZM563.652 102.936V104.112H567.168V102.936H563.652ZM563.652 104.784V105.972H567.168V104.784H563.652ZM563.652 101.112V102.264H567.168V101.112H563.652ZM562.812 100.404H568.032V106.668H562.812V100.404ZM564.924 98.856L565.944 98.988C565.848 99.332 565.748 99.68 565.644 100.032C565.54 100.384 565.44 100.688 565.344 100.944L564.54 100.788C564.588 100.604 564.636 100.4 564.684 100.176C564.74 99.944 564.788 99.712 564.828 99.48C564.868 99.248 564.9 99.04 564.924 98.856ZM564.012 106.884L564.792 107.352C564.576 107.56 564.316 107.768 564.012 107.976C563.708 108.184 563.384 108.376 563.04 108.552C562.704 108.728 562.376 108.876 562.056 108.996C561.984 108.916 561.888 108.816 561.768 108.696C561.648 108.576 561.54 108.476 561.444 108.396C561.764 108.276 562.088 108.136 562.416 107.976C562.744 107.808 563.048 107.632 563.328 107.448C563.608 107.256 563.836 107.068 564.012 106.884ZM565.872 107.412L566.544 106.944C566.792 107.08 567.048 107.24 567.312 107.424C567.584 107.608 567.84 107.792 568.08 107.976C568.328 108.16 568.532 108.328 568.692 108.48L567.972 108.996C567.828 108.844 567.636 108.676 567.396 108.492C567.164 108.308 566.912 108.12 566.64 107.928C566.368 107.736 566.112 107.564 565.872 107.412ZM559.608 97.92H560.1V98.124H560.364V98.364C560.204 98.7 560.004 99.072 559.764 99.48C559.524 99.888 559.236 100.304 558.9 100.728C558.572 101.152 558.192 101.564 557.76 101.964C557.728 101.892 557.68 101.816 557.616 101.736C557.552 101.648 557.484 101.564 557.412 101.484C557.348 101.404 557.288 101.348 557.232 101.316C557.616 100.972 557.96 100.608 558.264 100.224C558.568 99.832 558.832 99.436 559.056 99.036C559.28 98.636 559.464 98.264 559.608 97.92ZM559.716 97.92H560.4C560.664 98.152 560.94 98.412 561.228 98.7C561.524 98.98 561.796 99.26 562.044 99.54C562.3 99.82 562.508 100.072 562.668 100.296L562.068 101.064C561.924 100.832 561.728 100.568 561.48 100.272C561.24 99.968 560.98 99.668 560.7 99.372C560.428 99.076 560.16 98.816 559.896 98.592H559.716V97.92ZM569.508 100.848H572.712V101.7H569.508V100.848ZM570.78 98.064H571.62V106.104H570.78V98.064ZM569.424 106.452C569.848 106.276 570.352 106.052 570.936 105.78C571.528 105.5 572.128 105.208 572.736 104.904L572.988 105.708C572.436 105.996 571.876 106.284 571.308 106.572C570.748 106.852 570.232 107.108 569.76 107.34L569.424 106.452ZM572.916 99.696H580.38V100.524H572.916V99.696ZM572.52 106.764C572.88 106.684 573.288 106.588 573.744 106.476C574.208 106.356 574.7 106.228 575.22 106.092C575.74 105.956 576.26 105.82 576.78 105.684L576.864 106.44C576.144 106.648 575.424 106.856 574.704 107.064C573.984 107.272 573.332 107.46 572.748 107.628L572.52 106.764ZM576.936 97.932H577.8C577.8 98.876 577.816 99.784 577.848 100.656C577.88 101.52 577.928 102.332 577.992 103.092C578.056 103.844 578.136 104.528 578.232 105.144C578.336 105.752 578.452 106.28 578.58 106.728C578.708 107.168 578.848 107.508 579 107.748C579.152 107.98 579.312 108.096 579.48 108.096C579.6 108.096 579.688 107.964 579.744 107.7C579.808 107.436 579.852 106.992 579.876 106.368C579.964 106.464 580.068 106.556 580.188 106.644C580.316 106.724 580.428 106.788 580.524 106.836C580.484 107.372 580.42 107.792 580.332 108.096C580.252 108.4 580.136 108.616 579.984 108.744C579.832 108.88 579.628 108.948 579.372 108.948C579.06 108.948 578.784 108.812 578.544 108.54C578.304 108.276 578.092 107.896 577.908 107.4C577.732 106.904 577.58 106.32 577.452 105.648C577.332 104.968 577.236 104.216 577.164 103.392C577.092 102.568 577.036 101.696 576.996 100.776C576.964 99.848 576.944 98.9 576.936 97.932ZM578.28 98.4L578.796 97.944C579.06 98.12 579.332 98.328 579.612 98.568C579.9 98.8 580.12 99.004 580.272 99.18L579.72 99.708C579.568 99.516 579.356 99.3 579.084 99.06C578.812 98.812 578.544 98.592 578.28 98.4ZM579.336 101.652L580.152 101.82C579.736 103.38 579.16 104.752 578.424 105.936C577.688 107.12 576.78 108.092 575.7 108.852C575.66 108.804 575.6 108.74 575.52 108.66C575.44 108.58 575.356 108.504 575.268 108.432C575.188 108.36 575.112 108.304 575.04 108.264C576.128 107.576 577.024 106.672 577.728 105.552C578.432 104.424 578.968 103.124 579.336 101.652ZM573.972 102.384V104.412H575.544V102.384H573.972ZM573.276 101.652H576.276V105.144H573.276V101.652ZM587.883 99.252C587.27 100.443 586.871 101.32 586.688 101.883C586.41 102.738 586.271 103.727 586.271 104.848C586.271 105.98 586.43 107.016 586.746 107.953C586.941 108.531 587.326 109.363 587.9 110.449H587.191C586.621 109.559 586.268 108.99 586.131 108.744C585.994 108.498 585.846 108.164 585.686 107.742C585.467 107.164 585.314 106.547 585.229 105.891C585.186 105.551 585.164 105.227 585.164 104.918C585.164 103.762 585.346 102.732 585.709 101.83C585.939 101.256 586.42 100.396 587.15 99.252H587.883ZM592.295 105.029V101.227L589.605 105.029H592.295ZM592.312 108V105.949H588.633V104.918L592.477 99.5859H593.367V105.029H594.604V105.949H593.367V108H592.312ZM595.699 99.3633H596.725V102.486C596.955 102.186 597.23 101.957 597.551 101.801C597.871 101.641 598.219 101.561 598.594 101.561C599.375 101.561 600.008 101.83 600.492 102.369C600.98 102.904 601.225 103.695 601.225 104.742C601.225 105.734 600.984 106.559 600.504 107.215C600.023 107.871 599.357 108.199 598.506 108.199C598.029 108.199 597.627 108.084 597.299 107.854C597.104 107.717 596.895 107.498 596.672 107.197V108H595.699V99.3633ZM598.441 107.268C599.012 107.268 599.438 107.041 599.719 106.588C600.004 106.135 600.146 105.537 600.146 104.795C600.146 104.135 600.004 103.588 599.719 103.154C599.438 102.721 599.021 102.504 598.471 102.504C597.99 102.504 597.568 102.682 597.205 103.037C596.846 103.393 596.666 103.979 596.666 104.795C596.666 105.385 596.74 105.863 596.889 106.23C597.166 106.922 597.684 107.268 598.441 107.268ZM606.381 101.725H607.547C607.398 102.127 607.068 103.045 606.557 104.479C606.174 105.557 605.854 106.436 605.596 107.115C604.986 108.717 604.557 109.693 604.307 110.045C604.057 110.396 603.627 110.572 603.018 110.572C602.869 110.572 602.754 110.566 602.672 110.555C602.594 110.543 602.496 110.521 602.379 110.49V109.529C602.562 109.58 602.695 109.611 602.777 109.623C602.859 109.635 602.932 109.641 602.994 109.641C603.189 109.641 603.332 109.607 603.422 109.541C603.516 109.479 603.594 109.4 603.656 109.307C603.676 109.275 603.746 109.115 603.867 108.826C603.988 108.537 604.076 108.322 604.131 108.182L601.811 101.725H603.006L604.688 106.834L606.381 101.725ZM608.672 99.9727H609.738V101.725H610.74V102.586H609.738V106.682C609.738 106.9 609.812 107.047 609.961 107.121C610.043 107.164 610.18 107.186 610.371 107.186C610.422 107.186 610.477 107.186 610.535 107.186C610.594 107.182 610.662 107.176 610.74 107.168V108C610.619 108.035 610.492 108.061 610.359 108.076C610.23 108.092 610.09 108.1 609.938 108.1C609.445 108.1 609.111 107.975 608.936 107.725C608.76 107.471 608.672 107.143 608.672 106.74V102.586H607.822V101.725H608.672V99.9727ZM614.414 101.584C614.859 101.584 615.291 101.689 615.709 101.9C616.127 102.107 616.445 102.377 616.664 102.709C616.875 103.025 617.016 103.395 617.086 103.816C617.148 104.105 617.18 104.566 617.18 105.199H612.58C612.6 105.836 612.75 106.348 613.031 106.734C613.312 107.117 613.748 107.309 614.338 107.309C614.889 107.309 615.328 107.127 615.656 106.764C615.844 106.553 615.977 106.309 616.055 106.031H617.092C617.064 106.262 616.973 106.52 616.816 106.805C616.664 107.086 616.492 107.316 616.301 107.496C615.98 107.809 615.584 108.02 615.111 108.129C614.857 108.191 614.57 108.223 614.25 108.223C613.469 108.223 612.807 107.939 612.264 107.373C611.721 106.803 611.449 106.006 611.449 104.982C611.449 103.975 611.723 103.156 612.27 102.527C612.816 101.898 613.531 101.584 614.414 101.584ZM616.096 104.361C616.053 103.904 615.953 103.539 615.797 103.266C615.508 102.758 615.025 102.504 614.35 102.504C613.865 102.504 613.459 102.68 613.131 103.031C612.803 103.379 612.629 103.822 612.609 104.361H616.096ZM618.123 110.449C618.744 109.238 619.145 108.355 619.324 107.801C619.598 106.961 619.734 105.977 619.734 104.848C619.734 103.719 619.576 102.686 619.26 101.748C619.064 101.17 618.68 100.338 618.105 99.252H618.814C619.416 100.213 619.779 100.807 619.904 101.033C620.033 101.256 620.172 101.564 620.32 101.959C620.508 102.447 620.641 102.93 620.719 103.406C620.801 103.883 620.842 104.342 620.842 104.783C620.842 105.939 620.658 106.971 620.291 107.877C620.061 108.459 619.582 109.316 618.855 110.449H618.123Z" fill="#1A1A1A"/>
<path d="M490.5 70.5V80.5C490.5 87.1667 493.833 90.5 500.5 90.5H640.5C647.167 90.5 650.5 87.1667 650.5 80.5V70.5" stroke="#1A1A1A" stroke-miterlimit="10"/>
<path d="M500.727 24.6094C501.812 24.6094 502.598 25.0566 503.082 25.9512C503.457 26.6426 503.645 27.5898 503.645 28.793C503.645 29.9336 503.475 30.877 503.135 31.623C502.643 32.6934 501.838 33.2285 500.721 33.2285C499.713 33.2285 498.963 32.791 498.471 31.916C498.061 31.1855 497.855 30.2051 497.855 28.9746C497.855 28.0215 497.979 27.2031 498.225 26.5195C498.686 25.2461 499.52 24.6094 500.727 24.6094ZM500.715 32.2676C501.262 32.2676 501.697 32.0254 502.021 31.541C502.346 31.0566 502.508 30.1543 502.508 28.834C502.508 27.8809 502.391 27.0977 502.156 26.4844C501.922 25.8672 501.467 25.5586 500.791 25.5586C500.17 25.5586 499.715 25.8516 499.426 26.4375C499.141 27.0195 498.998 27.8789 498.998 29.0156C498.998 29.8711 499.09 30.5586 499.273 31.0781C499.555 31.8711 500.035 32.2676 500.715 32.2676ZM504.336 26.7246H505.701L507.143 28.9336L508.602 26.7246L509.885 26.7539L507.77 29.7832L509.979 33H508.631L507.072 30.6445L505.561 33H504.225L506.434 29.7832L504.336 26.7246ZM514.127 30.0293V26.2266L511.438 30.0293H514.127ZM514.145 33V30.9492H510.465V29.918L514.309 24.5859H515.199V30.0293H516.436V30.9492H515.199V33H514.145ZM520.086 24.6094C521.172 24.6094 521.957 25.0566 522.441 25.9512C522.816 26.6426 523.004 27.5898 523.004 28.793C523.004 29.9336 522.834 30.877 522.494 31.623C522.002 32.6934 521.197 33.2285 520.08 33.2285C519.072 33.2285 518.322 32.791 517.83 31.916C517.42 31.1855 517.215 30.2051 517.215 28.9746C517.215 28.0215 517.338 27.2031 517.584 26.5195C518.045 25.2461 518.879 24.6094 520.086 24.6094ZM520.074 32.2676C520.621 32.2676 521.057 32.0254 521.381 31.541C521.705 31.0566 521.867 30.1543 521.867 28.834C521.867 27.8809 521.75 27.0977 521.516 26.4844C521.281 25.8672 520.826 25.5586 520.15 25.5586C519.529 25.5586 519.074 25.8516 518.785 26.4375C518.5 27.0195 518.357 27.8789 518.357 29.0156C518.357 29.8711 518.449 30.5586 518.633 31.0781C518.914 31.8711 519.395 32.2676 520.074 32.2676Z" fill="#1A1A1A"/>
<path d="M61.1719 24.3926L60.9785 27.8379H60.2988L60.1055 24.3926H61.1719ZM66.8203 29.4727L65.5137 25.6699L64.125 29.4727H66.8203ZM64.9043 24.3926H66.2227L69.3457 33H68.0684L67.1953 30.4219H63.791L62.8594 33H61.6641L64.9043 24.3926ZM71.4727 24.3926L71.2793 27.8379H70.5996L70.4062 24.3926H71.4727ZM72.8145 31.7227H74.0391V33H72.8145V31.7227ZM76.1543 31.7227H77.3789V33H76.1543V31.7227ZM79.4941 31.7227H80.7188V33H79.4941V31.7227Z" fill="#1A1A1A"/>
<path d="M101.172 24.3926L100.979 27.8379H100.299L100.105 24.3926H101.172ZM105.637 28.0312C106.129 28.0312 106.512 27.9629 106.785 27.8262C107.215 27.6113 107.43 27.2246 107.43 26.666C107.43 26.1035 107.201 25.7246 106.744 25.5293C106.486 25.4199 106.104 25.3652 105.596 25.3652H103.516V28.0312H105.637ZM106.029 32.0039C106.744 32.0039 107.254 31.7969 107.559 31.3828C107.75 31.1211 107.846 30.8047 107.846 30.4336C107.846 29.8086 107.566 29.3828 107.008 29.1562C106.711 29.0352 106.318 28.9746 105.83 28.9746H103.516V32.0039H106.029ZM102.373 24.3926H106.07C107.078 24.3926 107.795 24.6934 108.221 25.2949C108.471 25.6504 108.596 26.0605 108.596 26.5254C108.596 27.0684 108.441 27.5137 108.133 27.8613C107.973 28.0449 107.742 28.2129 107.441 28.3652C107.883 28.5332 108.213 28.7227 108.432 28.9336C108.818 29.3086 109.012 29.8262 109.012 30.4863C109.012 31.041 108.838 31.543 108.49 31.9922C107.971 32.6641 107.145 33 106.012 33H102.373V24.3926ZM111.473 24.3926L111.279 27.8379H110.6L110.406 24.3926H111.473ZM112.814 31.7227H114.039V33H112.814V31.7227ZM116.154 31.7227H117.379V33H116.154V31.7227ZM119.494 31.7227H120.719V33H119.494V31.7227Z" fill="#1A1A1A"/>
<path d="M140.338 24.3926L140.145 27.8379H139.465L139.271 24.3926H140.338ZM145.195 24.1582C146.285 24.1582 147.131 24.4453 147.732 25.0195C148.334 25.5938 148.668 26.2461 148.734 26.9766H147.598C147.469 26.4219 147.211 25.9824 146.824 25.6582C146.441 25.334 145.902 25.1719 145.207 25.1719C144.359 25.1719 143.674 25.4707 143.15 26.0684C142.631 26.6621 142.371 27.5742 142.371 28.8047C142.371 29.8125 142.605 30.6309 143.074 31.2598C143.547 31.8848 144.25 32.1973 145.184 32.1973C146.043 32.1973 146.697 31.8672 147.146 31.207C147.385 30.8594 147.562 30.4023 147.68 29.8359H148.816C148.715 30.7422 148.379 31.502 147.809 32.1152C147.125 32.8535 146.203 33.2227 145.043 33.2227C144.043 33.2227 143.203 32.9199 142.523 32.3145C141.629 31.5137 141.182 30.2773 141.182 28.6055C141.182 27.3359 141.518 26.2949 142.189 25.4824C142.916 24.5996 143.918 24.1582 145.195 24.1582ZM151.307 24.3926L151.113 27.8379H150.434L150.24 24.3926H151.307ZM152.648 31.7227H153.873V33H152.648V31.7227ZM155.988 31.7227H157.213V33H155.988V31.7227ZM159.328 31.7227H160.553V33H159.328V31.7227Z" fill="#1A1A1A"/>
<path d="M180.164 24.3926L179.971 27.8379H179.291L179.098 24.3926H180.164ZM180.99 24.3926L184.336 33H183.422L180.076 24.3926H180.99ZM187.066 24.6094C188.152 24.6094 188.938 25.0566 189.422 25.9512C189.797 26.6426 189.984 27.5898 189.984 28.793C189.984 29.9336 189.814 30.877 189.475 31.623C188.982 32.6934 188.178 33.2285 187.061 33.2285C186.053 33.2285 185.303 32.791 184.811 31.916C184.4 31.1855 184.195 30.2051 184.195 28.9746C184.195 28.0215 184.318 27.2031 184.564 26.5195C185.025 25.2461 185.859 24.6094 187.066 24.6094ZM187.055 32.2676C187.602 32.2676 188.037 32.0254 188.361 31.541C188.686 31.0566 188.848 30.1543 188.848 28.834C188.848 27.8809 188.73 27.0977 188.496 26.4844C188.262 25.8672 187.807 25.5586 187.131 25.5586C186.51 25.5586 186.055 25.8516 185.766 26.4375C185.48 27.0195 185.338 27.8789 185.338 29.0156C185.338 29.8711 185.43 30.5586 185.613 31.0781C185.895 31.8711 186.375 32.2676 187.055 32.2676ZM192.48 24.3926L192.287 27.8379H191.607L191.414 24.3926H192.48ZM193.822 31.7227H195.047V33H193.822V31.7227ZM197.162 31.7227H198.387V33H197.162V31.7227ZM200.502 31.7227H201.727V33H200.502V31.7227Z" fill="#1A1A1A"/>
<path d="M540.727 24.6094C541.812 24.6094 542.598 25.0566 543.082 25.9512C543.457 26.6426 543.645 27.5898 543.645 28.793C543.645 29.9336 543.475 30.877 543.135 31.623C542.643 32.6934 541.838 33.2285 540.721 33.2285C539.713 33.2285 538.963 32.791 538.471 31.916C538.061 31.1855 537.855 30.2051 537.855 28.9746C537.855 28.0215 537.979 27.2031 538.225 26.5195C538.686 25.2461 539.52 24.6094 540.727 24.6094ZM540.715 32.2676C541.262 32.2676 541.697 32.0254 542.021 31.541C542.346 31.0566 542.508 30.1543 542.508 28.834C542.508 27.8809 542.391 27.0977 542.156 26.4844C541.922 25.8672 541.467 25.5586 540.791 25.5586C540.17 25.5586 539.715 25.8516 539.426 26.4375C539.141 27.0195 538.998 27.8789 538.998 29.0156C538.998 29.8711 539.09 30.5586 539.273 31.0781C539.555 31.8711 540.035 32.2676 540.715 32.2676ZM544.336 26.7246H545.701L547.143 28.9336L548.602 26.7246L549.885 26.7539L547.77 29.7832L549.979 33H548.631L547.072 30.6445L545.561 33H544.225L546.434 29.7832L544.336 26.7246ZM553.406 24.6094C554.492 24.6094 555.277 25.0566 555.762 25.9512C556.137 26.6426 556.324 27.5898 556.324 28.793C556.324 29.9336 556.154 30.877 555.814 31.623C555.322 32.6934 554.518 33.2285 553.4 33.2285C552.393 33.2285 551.643 32.791 551.15 31.916C550.74 31.1855 550.535 30.2051 550.535 28.9746C550.535 28.0215 550.658 27.2031 550.904 26.5195C551.365 25.2461 552.199 24.6094 553.406 24.6094ZM553.395 32.2676C553.941 32.2676 554.377 32.0254 554.701 31.541C555.025 31.0566 555.188 30.1543 555.188 28.834C555.188 27.8809 555.07 27.0977 554.836 26.4844C554.602 25.8672 554.146 25.5586 553.471 25.5586C552.85 25.5586 552.395 25.8516 552.105 26.4375C551.82 27.0195 551.678 27.8789 551.678 29.0156C551.678 29.8711 551.77 30.5586 551.953 31.0781C552.234 31.8711 552.715 32.2676 553.395 32.2676ZM560.086 24.6094C561.172 24.6094 561.957 25.0566 562.441 25.9512C562.816 26.6426 563.004 27.5898 563.004 28.793C563.004 29.9336 562.834 30.877 562.494 31.623C562.002 32.6934 561.197 33.2285 560.08 33.2285C559.072 33.2285 558.322 32.791 557.83 31.916C557.42 31.1855 557.215 30.2051 557.215 28.9746C557.215 28.0215 557.338 27.2031 557.584 26.5195C558.045 25.2461 558.879 24.6094 560.086 24.6094ZM560.074 32.2676C560.621 32.2676 561.057 32.0254 561.381 31.541C561.705 31.0566 561.867 30.1543 561.867 28.834C561.867 27.8809 561.75 27.0977 561.516 26.4844C561.281 25.8672 560.826 25.5586 560.15 25.5586C559.529 25.5586 559.074 25.8516 558.785 26.4375C558.5 27.0195 558.357 27.8789 558.357 29.0156C558.357 29.8711 558.449 30.5586 558.633 31.0781C558.914 31.8711 559.395 32.2676 560.074 32.2676Z" fill="#1A1A1A"/>
<path d="M620.727 24.6094C621.812 24.6094 622.598 25.0566 623.082 25.9512C623.457 26.6426 623.645 27.5898 623.645 28.793C623.645 29.9336 623.475 30.877 623.135 31.623C622.643 32.6934 621.838 33.2285 620.721 33.2285C619.713 33.2285 618.963 32.791 618.471 31.916C618.061 31.1855 617.855 30.2051 617.855 28.9746C617.855 28.0215 617.979 27.2031 618.225 26.5195C618.686 25.2461 619.52 24.6094 620.727 24.6094ZM620.715 32.2676C621.262 32.2676 621.697 32.0254 622.021 31.541C622.346 31.0566 622.508 30.1543 622.508 28.834C622.508 27.8809 622.391 27.0977 622.156 26.4844C621.922 25.8672 621.467 25.5586 620.791 25.5586C620.17 25.5586 619.715 25.8516 619.426 26.4375C619.141 27.0195 618.998 27.8789 618.998 29.0156C618.998 29.8711 619.09 30.5586 619.273 31.0781C619.555 31.8711 620.035 32.2676 620.715 32.2676ZM624.336 26.7246H625.701L627.143 28.9336L628.602 26.7246L629.885 26.7539L627.77 29.7832L629.979 33H628.631L627.072 30.6445L625.561 33H624.225L626.434 29.7832L624.336 26.7246ZM633.406 24.6094C634.492 24.6094 635.277 25.0566 635.762 25.9512C636.137 26.6426 636.324 27.5898 636.324 28.793C636.324 29.9336 636.154 30.877 635.814 31.623C635.322 32.6934 634.518 33.2285 633.4 33.2285C632.393 33.2285 631.643 32.791 631.15 31.916C630.74 31.1855 630.535 30.2051 630.535 28.9746C630.535 28.0215 630.658 27.2031 630.904 26.5195C631.365 25.2461 632.199 24.6094 633.406 24.6094ZM633.395 32.2676C633.941 32.2676 634.377 32.0254 634.701 31.541C635.025 31.0566 635.188 30.1543 635.188 28.834C635.188 27.8809 635.07 27.0977 634.836 26.4844C634.602 25.8672 634.146 25.5586 633.471 25.5586C632.85 25.5586 632.395 25.8516 632.105 26.4375C631.82 27.0195 631.678 27.8789 631.678 29.0156C631.678 29.8711 631.77 30.5586 631.953 31.0781C632.234 31.8711 632.715 32.2676 633.395 32.2676ZM640.086 24.6094C641.172 24.6094 641.957 25.0566 642.441 25.9512C642.816 26.6426 643.004 27.5898 643.004 28.793C643.004 29.9336 642.834 30.877 642.494 31.623C642.002 32.6934 641.197 33.2285 640.08 33.2285C639.072 33.2285 638.322 32.791 637.83 31.916C637.42 31.1855 637.215 30.2051 637.215 28.9746C637.215 28.0215 637.338 27.2031 637.584 26.5195C638.045 25.2461 638.879 24.6094 640.086 24.6094ZM640.074 32.2676C640.621 32.2676 641.057 32.0254 641.381 31.541C641.705 31.0566 641.867 30.1543 641.867 28.834C641.867 27.8809 641.75 27.0977 641.516 26.4844C641.281 25.8672 640.826 25.5586 640.15 25.5586C639.529 25.5586 639.074 25.8516 638.785 26.4375C638.5 27.0195 638.357 27.8789 638.357 29.0156C638.357 29.8711 638.449 30.5586 638.633 31.0781C638.914 31.8711 639.395 32.2676 640.074 32.2676Z" fill="#1A1A1A"/>
<path d="M580.727 24.6094C581.812 24.6094 582.598 25.0566 583.082 25.9512C583.457 26.6426 583.645 27.5898 583.645 28.793C583.645 29.9336 583.475 30.877 583.135 31.623C582.643 32.6934 581.838 33.2285 580.721 33.2285C579.713 33.2285 578.963 32.791 578.471 31.916C578.061 31.1855 577.855 30.2051 577.855 28.9746C577.855 28.0215 577.979 27.2031 578.225 26.5195C578.686 25.2461 579.52 24.6094 580.727 24.6094ZM580.715 32.2676C581.262 32.2676 581.697 32.0254 582.021 31.541C582.346 31.0566 582.508 30.1543 582.508 28.834C582.508 27.8809 582.391 27.0977 582.156 26.4844C581.922 25.8672 581.467 25.5586 580.791 25.5586C580.17 25.5586 579.715 25.8516 579.426 26.4375C579.141 27.0195 578.998 27.8789 578.998 29.0156C578.998 29.8711 579.09 30.5586 579.273 31.0781C579.555 31.8711 580.035 32.2676 580.715 32.2676ZM584.336 26.7246H585.701L587.143 28.9336L588.602 26.7246L589.885 26.7539L587.77 29.7832L589.979 33H588.631L587.072 30.6445L585.561 33H584.225L586.434 29.7832L584.336 26.7246ZM593.406 24.6094C594.492 24.6094 595.277 25.0566 595.762 25.9512C596.137 26.6426 596.324 27.5898 596.324 28.793C596.324 29.9336 596.154 30.877 595.814 31.623C595.322 32.6934 594.518 33.2285 593.4 33.2285C592.393 33.2285 591.643 32.791 591.15 31.916C590.74 31.1855 590.535 30.2051 590.535 28.9746C590.535 28.0215 590.658 27.2031 590.904 26.5195C591.365 25.2461 592.199 24.6094 593.406 24.6094ZM593.395 32.2676C593.941 32.2676 594.377 32.0254 594.701 31.541C595.025 31.0566 595.188 30.1543 595.188 28.834C595.188 27.8809 595.07 27.0977 594.836 26.4844C594.602 25.8672 594.146 25.5586 593.471 25.5586C592.85 25.5586 592.395 25.8516 592.105 26.4375C591.82 27.0195 591.678 27.8789 591.678 29.0156C591.678 29.8711 591.77 30.5586 591.953 31.0781C592.234 31.8711 592.715 32.2676 593.395 32.2676ZM600.086 24.6094C601.172 24.6094 601.957 25.0566 602.441 25.9512C602.816 26.6426 603.004 27.5898 603.004 28.793C603.004 29.9336 602.834 30.877 602.494 31.623C602.002 32.6934 601.197 33.2285 600.08 33.2285C599.072 33.2285 598.322 32.791 597.83 31.916C597.42 31.1855 597.215 30.2051 597.215 28.9746C597.215 28.0215 597.338 27.2031 597.584 26.5195C598.045 25.2461 598.879 24.6094 600.086 24.6094ZM600.074 32.2676C600.621 32.2676 601.057 32.0254 601.381 31.541C601.705 31.0566 601.867 30.1543 601.867 28.834C601.867 27.8809 601.75 27.0977 601.516 26.4844C601.281 25.8672 600.826 25.5586 600.15 25.5586C599.529 25.5586 599.074 25.8516 598.785 26.4375C598.5 27.0195 598.357 27.8789 598.357 29.0156C598.357 29.8711 598.449 30.5586 598.633 31.0781C598.914 31.8711 599.395 32.2676 600.074 32.2676Z" fill="#1A1A1A"/>
<path d="M415.618 84.328H421.522V85.072H415.618V84.328ZM415.69 80.128H421.474V80.872H415.69V80.128ZM417.85 83.284L418.702 83.476C418.518 83.86 418.314 84.272 418.09 84.712C417.874 85.144 417.658 85.564 417.442 85.972C417.234 86.372 417.038 86.732 416.854 87.052L416.062 86.776C416.238 86.472 416.434 86.12 416.65 85.72C416.866 85.32 417.078 84.908 417.286 84.484C417.502 84.052 417.69 83.652 417.85 83.284ZM419.65 84.772L420.49 84.88C420.394 85.464 420.234 85.98 420.01 86.428C419.794 86.868 419.506 87.252 419.146 87.58C418.794 87.9 418.362 88.172 417.85 88.396C417.346 88.62 416.746 88.808 416.05 88.96C416.018 88.84 415.962 88.708 415.882 88.564C415.81 88.42 415.734 88.3 415.654 88.204C416.494 88.06 417.186 87.852 417.73 87.58C418.274 87.3 418.698 86.932 419.002 86.476C419.314 86.012 419.53 85.444 419.65 84.772ZM420.406 78.148L421.186 78.484C421.01 78.764 420.826 79.044 420.634 79.324C420.45 79.604 420.274 79.844 420.106 80.044L419.494 79.744C419.646 79.536 419.81 79.28 419.986 78.976C420.162 78.664 420.302 78.388 420.406 78.148ZM418.174 77.908H419.014V83.428H418.174V77.908ZM416.146 78.484L416.818 78.208C416.994 78.448 417.154 78.712 417.298 79C417.45 79.288 417.554 79.54 417.61 79.756L416.89 80.068C416.842 79.86 416.746 79.608 416.602 79.312C416.458 79.008 416.306 78.732 416.146 78.484ZM418.198 80.464L418.798 80.812C418.606 81.148 418.358 81.484 418.054 81.82C417.758 82.156 417.434 82.468 417.082 82.756C416.738 83.036 416.394 83.272 416.05 83.464C416.002 83.36 415.93 83.24 415.834 83.104C415.738 82.968 415.646 82.86 415.558 82.78C415.894 82.628 416.23 82.432 416.566 82.192C416.902 81.952 417.214 81.68 417.502 81.376C417.79 81.072 418.022 80.768 418.198 80.464ZM418.918 80.872C419.022 80.928 419.178 81.02 419.386 81.148C419.602 81.276 419.83 81.416 420.07 81.568C420.31 81.72 420.53 81.86 420.73 81.988C420.93 82.116 421.074 82.216 421.162 82.288L420.658 82.936C420.554 82.84 420.406 82.716 420.214 82.564C420.022 82.412 419.814 82.252 419.59 82.084C419.374 81.916 419.166 81.756 418.966 81.604C418.766 81.452 418.602 81.336 418.474 81.256L418.918 80.872ZM422.398 80.128H426.67V80.968H422.398V80.128ZM422.698 77.908L423.598 78.04C423.47 78.824 423.302 79.58 423.094 80.308C422.894 81.028 422.658 81.7 422.386 82.324C422.114 82.94 421.802 83.48 421.45 83.944C421.402 83.888 421.334 83.824 421.246 83.752C421.158 83.672 421.062 83.596 420.958 83.524C420.862 83.444 420.782 83.38 420.718 83.332C421.054 82.908 421.35 82.412 421.606 81.844C421.862 81.268 422.078 80.648 422.254 79.984C422.438 79.312 422.586 78.62 422.698 77.908ZM425.05 80.608L425.974 80.704C425.782 82.088 425.494 83.304 425.11 84.352C424.734 85.4 424.222 86.304 423.574 87.064C422.934 87.824 422.11 88.468 421.102 88.996C421.07 88.916 421.022 88.824 420.958 88.72C420.894 88.624 420.826 88.524 420.754 88.42C420.69 88.324 420.626 88.244 420.562 88.18C421.514 87.732 422.29 87.164 422.89 86.476C423.49 85.78 423.958 84.948 424.294 83.98C424.638 83.004 424.89 81.88 425.05 80.608ZM422.878 80.872C423.054 81.976 423.302 83.012 423.622 83.98C423.95 84.94 424.374 85.784 424.894 86.512C425.414 87.232 426.046 87.788 426.79 88.18C426.718 88.244 426.638 88.32 426.55 88.408C426.47 88.496 426.394 88.588 426.322 88.684C426.25 88.78 426.19 88.872 426.142 88.96C425.366 88.496 424.71 87.876 424.174 87.1C423.638 86.316 423.202 85.408 422.866 84.376C422.53 83.344 422.262 82.22 422.062 81.004L422.878 80.872ZM416.782 86.62L417.25 86.008C417.73 86.184 418.206 86.388 418.678 86.62C419.15 86.844 419.59 87.076 419.998 87.316C420.406 87.556 420.754 87.788 421.042 88.012L420.418 88.66C420.146 88.428 419.814 88.192 419.422 87.952C419.03 87.712 418.606 87.476 418.15 87.244C417.702 87.012 417.246 86.804 416.782 86.62ZM427.842 79.3633H428.867V82.4863C429.098 82.1855 429.373 81.957 429.693 81.8008C430.014 81.6406 430.361 81.5605 430.736 81.5605C431.518 81.5605 432.15 81.8301 432.635 82.3691C433.123 82.9043 433.367 83.6953 433.367 84.7422C433.367 85.7344 433.127 86.5586 432.646 87.2148C432.166 87.8711 431.5 88.1992 430.648 88.1992C430.172 88.1992 429.77 88.084 429.441 87.8535C429.246 87.7168 429.037 87.498 428.814 87.1973V88H427.842V79.3633ZM430.584 87.2676C431.154 87.2676 431.58 87.041 431.861 86.5879C432.146 86.1348 432.289 85.5371 432.289 84.7949C432.289 84.1348 432.146 83.5879 431.861 83.1543C431.58 82.7207 431.164 82.5039 430.613 82.5039C430.133 82.5039 429.711 82.6816 429.348 83.0371C428.988 83.3926 428.809 83.9785 428.809 84.7949C428.809 85.3848 428.883 85.8633 429.031 86.2305C429.309 86.9219 429.826 87.2676 430.584 87.2676ZM438.523 81.7246H439.689C439.541 82.127 439.211 83.0449 438.699 84.4785C438.316 85.5566 437.996 86.4355 437.738 87.1152C437.129 88.7168 436.699 89.6934 436.449 90.0449C436.199 90.3965 435.77 90.5723 435.16 90.5723C435.012 90.5723 434.896 90.5664 434.814 90.5547C434.736 90.543 434.639 90.5215 434.521 90.4902V89.5293C434.705 89.5801 434.838 89.6113 434.92 89.623C435.002 89.6348 435.074 89.6406 435.137 89.6406C435.332 89.6406 435.475 89.6074 435.564 89.541C435.658 89.4785 435.736 89.4004 435.799 89.3066C435.818 89.2754 435.889 89.1152 436.01 88.8262C436.131 88.5371 436.219 88.3223 436.273 88.1816L433.953 81.7246H435.148L436.83 86.834L438.523 81.7246ZM440.814 79.9727H441.881V81.7246H442.883V82.5859H441.881V86.6816C441.881 86.9004 441.955 87.0469 442.104 87.1211C442.186 87.1641 442.322 87.1855 442.514 87.1855C442.564 87.1855 442.619 87.1855 442.678 87.1855C442.736 87.1816 442.805 87.1758 442.883 87.168V88C442.762 88.0352 442.635 88.0605 442.502 88.0762C442.373 88.0918 442.232 88.0996 442.08 88.0996C441.588 88.0996 441.254 87.9746 441.078 87.7246C440.902 87.4707 440.814 87.1426 440.814 86.7402V82.5859H439.965V81.7246H440.814V79.9727ZM446.557 81.584C447.002 81.584 447.434 81.6895 447.852 81.9004C448.27 82.1074 448.588 82.377 448.807 82.709C449.018 83.0254 449.158 83.3945 449.229 83.8164C449.291 84.1055 449.322 84.5664 449.322 85.1992H444.723C444.742 85.8359 444.893 86.3477 445.174 86.7344C445.455 87.1172 445.891 87.3086 446.48 87.3086C447.031 87.3086 447.471 87.127 447.799 86.7637C447.986 86.5527 448.119 86.3086 448.197 86.0312H449.234C449.207 86.2617 449.115 86.5195 448.959 86.8047C448.807 87.0859 448.635 87.3164 448.443 87.4961C448.123 87.8086 447.727 88.0195 447.254 88.1289C447 88.1914 446.713 88.2227 446.393 88.2227C445.611 88.2227 444.949 87.9395 444.406 87.373C443.863 86.8027 443.592 86.0059 443.592 84.9824C443.592 83.9746 443.865 83.1562 444.412 82.5273C444.959 81.8984 445.674 81.584 446.557 81.584ZM448.238 84.3613C448.195 83.9043 448.096 83.5391 447.939 83.2656C447.65 82.7578 447.168 82.5039 446.492 82.5039C446.008 82.5039 445.602 82.6797 445.273 83.0312C444.945 83.3789 444.771 83.8223 444.752 84.3613H448.238ZM456.618 79.804C456.538 80.428 456.434 81.08 456.306 81.76C456.186 82.44 456.03 83.1 455.838 83.74C455.598 84.564 455.33 85.252 455.034 85.804C454.746 86.356 454.434 86.772 454.098 87.052C453.762 87.332 453.41 87.472 453.042 87.472C452.69 87.472 452.35 87.344 452.022 87.088C451.694 86.832 451.426 86.464 451.218 85.984C451.01 85.496 450.906 84.924 450.906 84.268C450.906 83.612 451.038 82.992 451.302 82.408C451.574 81.824 451.946 81.308 452.418 80.86C452.898 80.404 453.458 80.044 454.098 79.78C454.738 79.516 455.422 79.384 456.15 79.384C456.854 79.384 457.486 79.5 458.046 79.732C458.614 79.964 459.098 80.284 459.498 80.692C459.898 81.092 460.206 81.56 460.422 82.096C460.638 82.624 460.746 83.192 460.746 83.8C460.746 84.64 460.566 85.38 460.206 86.02C459.854 86.66 459.342 87.18 458.67 87.58C458.006 87.98 457.198 88.244 456.246 88.372L455.682 87.484C455.874 87.46 456.058 87.436 456.234 87.412C456.41 87.388 456.57 87.36 456.714 87.328C457.098 87.24 457.47 87.104 457.83 86.92C458.198 86.728 458.526 86.488 458.814 86.2C459.102 85.904 459.33 85.556 459.498 85.156C459.674 84.748 459.762 84.284 459.762 83.764C459.762 83.276 459.682 82.824 459.522 82.408C459.362 81.984 459.126 81.612 458.814 81.292C458.502 80.972 458.122 80.72 457.674 80.536C457.226 80.352 456.714 80.26 456.138 80.26C455.482 80.26 454.886 80.38 454.35 80.62C453.822 80.86 453.37 81.176 452.994 81.568C452.626 81.952 452.342 82.376 452.142 82.84C451.942 83.296 451.842 83.744 451.842 84.184C451.842 84.688 451.906 85.104 452.034 85.432C452.17 85.752 452.33 85.988 452.514 86.14C452.706 86.292 452.894 86.368 453.078 86.368C453.27 86.368 453.466 86.276 453.666 86.092C453.866 85.9 454.07 85.596 454.278 85.18C454.486 84.756 454.69 84.208 454.89 83.536C455.066 82.96 455.214 82.348 455.334 81.7C455.462 81.052 455.554 80.416 455.61 79.792L456.618 79.804ZM467.358 77.92H468.282V79.72H467.358V77.92ZM467.358 84.904H468.282V88.228H467.358V84.904ZM466.026 79.864H466.962C466.898 80.416 466.798 80.916 466.662 81.364C466.526 81.804 466.318 82.192 466.038 82.528C465.766 82.864 465.394 83.156 464.922 83.404C464.458 83.644 463.862 83.848 463.134 84.016C463.11 83.936 463.07 83.852 463.014 83.764C462.966 83.668 462.91 83.576 462.846 83.488C462.782 83.392 462.714 83.312 462.642 83.248C463.306 83.12 463.846 82.96 464.262 82.768C464.686 82.568 465.018 82.332 465.258 82.06C465.498 81.78 465.674 81.46 465.786 81.1C465.898 80.732 465.978 80.32 466.026 79.864ZM468.702 79.84H469.59V82.384C469.59 82.528 469.622 82.62 469.686 82.66C469.75 82.7 469.89 82.72 470.106 82.72C470.162 82.72 470.258 82.72 470.394 82.72C470.53 82.72 470.682 82.72 470.85 82.72C471.026 82.72 471.186 82.72 471.33 82.72C471.482 82.72 471.59 82.72 471.654 82.72C471.774 82.72 471.862 82.7 471.918 82.66C471.982 82.612 472.026 82.52 472.05 82.384C472.082 82.24 472.102 82.028 472.11 81.748C472.174 81.796 472.25 81.84 472.338 81.88C472.434 81.92 472.53 81.956 472.626 81.988C472.73 82.02 472.822 82.048 472.902 82.072C472.87 82.448 472.814 82.74 472.734 82.948C472.654 83.156 472.538 83.304 472.386 83.392C472.234 83.472 472.022 83.512 471.75 83.512C471.686 83.512 471.57 83.512 471.402 83.512C471.242 83.512 471.066 83.512 470.874 83.512C470.682 83.512 470.502 83.512 470.334 83.512C470.174 83.512 470.07 83.512 470.022 83.512C469.67 83.512 469.398 83.48 469.206 83.416C469.014 83.352 468.882 83.236 468.81 83.068C468.738 82.9 468.702 82.672 468.702 82.384V79.84ZM462.786 79.168H472.95V81.328H472.026V79.996H463.674V81.592H462.786V79.168ZM463.83 84.52H472.098V85.348H463.83V84.52ZM462.57 87.772H473.142V88.6H462.57V87.772ZM478.026 85.276H481.662V85.972H478.026V85.276ZM477.978 83.464H482.07V87.844H477.978V87.136H481.23V84.172H477.978V83.464ZM477.594 83.464H478.41V88.456H477.594V83.464ZM475.374 80.14H478.71V80.8H475.374V80.14ZM480.906 80.14H484.314V80.8H480.906V80.14ZM483.93 78.436H484.842V87.772C484.842 88.052 484.802 88.272 484.722 88.432C484.65 88.592 484.514 88.712 484.314 88.792C484.122 88.872 483.858 88.92 483.522 88.936C483.194 88.952 482.782 88.96 482.286 88.96C482.27 88.872 482.246 88.772 482.214 88.66C482.182 88.548 482.142 88.436 482.094 88.324C482.054 88.212 482.014 88.116 481.974 88.036C482.214 88.044 482.446 88.048 482.67 88.048C482.902 88.048 483.106 88.048 483.282 88.048C483.458 88.048 483.582 88.048 483.654 88.048C483.758 88.04 483.83 88.016 483.87 87.976C483.91 87.936 483.93 87.864 483.93 87.76V78.436ZM475.446 78.436H479.286V82.552H475.446V81.868H478.446V79.132H475.446V78.436ZM484.386 78.436V79.132H481.23V81.88H484.386V82.576H480.378V78.436H484.386ZM474.93 78.436H475.83V88.972H474.93V78.436Z" fill="#1A1A1A"/>
<path d="M276.544 121.009V120.227H281.998V121.009H279.711V127.5H278.83V121.009H276.544ZM284.74 127.614C284.214 127.614 283.761 127.498 283.379 127.266C283.001 127.031 282.708 126.705 282.502 126.286C282.299 125.864 282.197 125.374 282.197 124.815C282.197 124.257 282.299 123.764 282.502 123.338C282.708 122.91 282.995 122.576 283.362 122.337C283.731 122.095 284.162 121.974 284.654 121.974C284.938 121.974 285.219 122.022 285.496 122.116C285.773 122.211 286.025 122.365 286.252 122.578C286.48 122.789 286.661 123.068 286.796 123.416C286.931 123.764 286.998 124.193 286.998 124.702V125.057H282.794V124.332H286.146C286.146 124.025 286.084 123.75 285.961 123.509C285.84 123.267 285.668 123.076 285.443 122.937C285.22 122.797 284.957 122.727 284.654 122.727C284.32 122.727 284.032 122.81 283.788 122.976C283.546 123.139 283.36 123.352 283.23 123.615C283.1 123.878 283.035 124.16 283.035 124.46V124.943C283.035 125.355 283.106 125.704 283.248 125.991C283.392 126.275 283.593 126.491 283.848 126.641C284.104 126.787 284.401 126.861 284.74 126.861C284.96 126.861 285.159 126.83 285.336 126.768C285.516 126.705 285.671 126.61 285.801 126.484C285.932 126.357 286.032 126.198 286.103 126.009L286.913 126.236C286.828 126.51 286.684 126.752 286.483 126.96C286.282 127.166 286.033 127.327 285.737 127.443C285.441 127.557 285.109 127.614 284.74 127.614ZM288.751 122.045L290.058 124.276L291.365 122.045H292.331L290.57 124.773L292.331 127.5H291.365L290.058 125.384L288.751 127.5H287.786L289.518 124.773L287.786 122.045H288.751ZM295.899 122.045V122.756H293.072V122.045H295.899ZM293.896 120.739H294.734V125.938C294.734 126.174 294.769 126.352 294.837 126.47C294.908 126.586 294.998 126.664 295.107 126.705C295.218 126.742 295.336 126.761 295.459 126.761C295.551 126.761 295.627 126.757 295.686 126.747C295.745 126.735 295.792 126.726 295.828 126.719L295.998 127.472C295.942 127.493 295.862 127.514 295.76 127.536C295.659 127.559 295.53 127.571 295.373 127.571C295.137 127.571 294.905 127.52 294.677 127.418C294.452 127.317 294.265 127.161 294.116 126.953C293.97 126.745 293.896 126.482 293.896 126.165V120.739ZM299.972 127.5V122.045H300.81V127.5H299.972ZM300.398 121.136C300.235 121.136 300.094 121.081 299.976 120.969C299.86 120.858 299.802 120.724 299.802 120.568C299.802 120.412 299.86 120.278 299.976 120.167C300.094 120.056 300.235 120 300.398 120C300.562 120 300.701 120.056 300.817 120.167C300.936 120.278 300.995 120.412 300.995 120.568C300.995 120.724 300.936 120.858 300.817 120.969C300.701 121.081 300.562 121.136 300.398 121.136ZM306.209 123.267L305.456 123.48C305.409 123.355 305.339 123.233 305.246 123.114C305.156 122.994 305.033 122.894 304.877 122.816C304.721 122.738 304.521 122.699 304.277 122.699C303.943 122.699 303.665 122.776 303.442 122.93C303.222 123.081 303.112 123.274 303.112 123.509C303.112 123.717 303.188 123.881 303.339 124.002C303.491 124.123 303.728 124.223 304.05 124.304L304.859 124.503C305.347 124.621 305.71 124.802 305.95 125.046C306.189 125.288 306.308 125.599 306.308 125.98C306.308 126.293 306.218 126.572 306.038 126.818C305.861 127.064 305.612 127.259 305.293 127.401C304.973 127.543 304.601 127.614 304.178 127.614C303.621 127.614 303.161 127.493 302.796 127.251C302.432 127.01 302.201 126.657 302.104 126.193L302.899 125.994C302.975 126.288 303.118 126.508 303.329 126.655C303.542 126.802 303.82 126.875 304.163 126.875C304.554 126.875 304.864 126.792 305.094 126.626C305.326 126.458 305.442 126.257 305.442 126.023C305.442 125.833 305.375 125.675 305.243 125.547C305.11 125.417 304.907 125.32 304.632 125.256L303.723 125.043C303.223 124.924 302.857 124.741 302.622 124.492C302.39 124.241 302.274 123.928 302.274 123.551C302.274 123.243 302.361 122.971 302.533 122.734C302.709 122.498 302.946 122.312 303.247 122.177C303.55 122.042 303.893 121.974 304.277 121.974C304.817 121.974 305.241 122.093 305.548 122.33C305.858 122.566 306.079 122.879 306.209 123.267ZM311.22 124.219V127.5H310.382V122.045H311.192V122.898H311.263C311.391 122.621 311.585 122.398 311.845 122.23C312.106 122.06 312.442 121.974 312.854 121.974C313.223 121.974 313.546 122.05 313.823 122.202C314.1 122.351 314.316 122.578 314.47 122.884C314.624 123.187 314.7 123.57 314.7 124.034V127.5H313.862V124.091C313.862 123.662 313.751 123.329 313.529 123.089C313.306 122.848 313.001 122.727 312.612 122.727C312.345 122.727 312.106 122.785 311.895 122.901C311.687 123.017 311.522 123.187 311.401 123.409C311.281 123.632 311.22 123.902 311.22 124.219ZM318.448 127.614C317.955 127.614 317.523 127.496 317.152 127.262C316.782 127.028 316.493 126.7 316.285 126.278C316.079 125.857 315.976 125.365 315.976 124.801C315.976 124.233 316.079 123.737 316.285 123.313C316.493 122.889 316.782 122.56 317.152 122.326C317.523 122.092 317.955 121.974 318.448 121.974C318.94 121.974 319.371 122.092 319.74 122.326C320.112 122.56 320.401 122.889 320.607 123.313C320.815 123.737 320.919 124.233 320.919 124.801C320.919 125.365 320.815 125.857 320.607 126.278C320.401 126.7 320.112 127.028 319.74 127.262C319.371 127.496 318.94 127.614 318.448 127.614ZM318.448 126.861C318.822 126.861 319.13 126.765 319.371 126.573C319.613 126.381 319.791 126.129 319.907 125.817C320.023 125.504 320.081 125.166 320.081 124.801C320.081 124.437 320.023 124.097 319.907 123.782C319.791 123.467 319.613 123.213 319.371 123.018C319.13 122.824 318.822 122.727 318.448 122.727C318.074 122.727 317.766 122.824 317.525 123.018C317.283 123.213 317.104 123.467 316.988 123.782C316.872 124.097 316.814 124.437 316.814 124.801C316.814 125.166 316.872 125.504 316.988 125.817C317.104 126.129 317.283 126.381 317.525 126.573C317.766 126.765 318.074 126.861 318.448 126.861ZM324.571 122.045V122.756H321.744V122.045H324.571ZM322.568 120.739H323.406V125.938C323.406 126.174 323.44 126.352 323.509 126.47C323.58 126.586 323.67 126.664 323.779 126.705C323.89 126.742 324.007 126.761 324.131 126.761C324.223 126.761 324.299 126.757 324.358 126.747C324.417 126.735 324.464 126.726 324.5 126.719L324.67 127.472C324.613 127.493 324.534 127.514 324.432 127.536C324.331 127.559 324.202 127.571 324.045 127.571C323.809 127.571 323.577 127.52 323.349 127.418C323.124 127.317 322.937 127.161 322.788 126.953C322.641 126.745 322.568 126.482 322.568 126.165V120.739ZM332.735 122.045C332.692 121.686 332.519 121.406 332.216 121.207C331.913 121.009 331.542 120.909 331.101 120.909C330.779 120.909 330.498 120.961 330.256 121.065C330.017 121.17 329.83 121.313 329.695 121.495C329.563 121.677 329.496 121.884 329.496 122.116C329.496 122.311 329.542 122.478 329.635 122.617C329.729 122.754 329.85 122.869 329.997 122.962C330.144 123.052 330.298 123.126 330.459 123.185C330.62 123.242 330.768 123.288 330.903 123.324L331.641 123.523C331.831 123.572 332.041 123.641 332.273 123.729C332.508 123.816 332.731 123.936 332.944 124.087C333.16 124.237 333.337 124.428 333.477 124.663C333.617 124.897 333.687 125.185 333.687 125.526C333.687 125.919 333.584 126.274 333.378 126.591C333.174 126.908 332.876 127.16 332.483 127.347C332.092 127.534 331.617 127.628 331.059 127.628C330.538 127.628 330.087 127.544 329.706 127.376C329.327 127.208 329.029 126.973 328.811 126.673C328.595 126.372 328.474 126.023 328.445 125.625H329.354C329.378 125.9 329.47 126.127 329.631 126.307C329.795 126.484 330.001 126.617 330.249 126.705C330.5 126.79 330.77 126.832 331.059 126.832C331.395 126.832 331.697 126.778 331.964 126.669C332.232 126.558 332.444 126.404 332.6 126.207C332.756 126.009 332.834 125.777 332.834 125.511C332.834 125.27 332.767 125.073 332.632 124.922C332.497 124.77 332.319 124.647 332.099 124.553C331.879 124.458 331.641 124.375 331.385 124.304L330.491 124.048C329.922 123.885 329.473 123.652 329.141 123.349C328.81 123.046 328.644 122.649 328.644 122.159C328.644 121.752 328.754 121.397 328.974 121.094C329.197 120.788 329.495 120.552 329.869 120.384C330.246 120.213 330.666 120.128 331.13 120.128C331.599 120.128 332.015 120.212 332.38 120.38C332.744 120.546 333.033 120.773 333.246 121.062C333.462 121.351 333.575 121.679 333.587 122.045H332.735ZM335.433 120.227L337.592 126.349H337.677L339.836 120.227H340.76L338.089 127.5H337.18L334.51 120.227H335.433ZM346.522 122.5C346.444 122.261 346.341 122.047 346.213 121.857C346.088 121.665 345.937 121.502 345.762 121.367C345.589 121.232 345.393 121.129 345.173 121.058C344.953 120.987 344.711 120.952 344.448 120.952C344.017 120.952 343.626 121.063 343.273 121.286C342.92 121.508 342.64 121.836 342.431 122.269C342.223 122.702 342.119 123.234 342.119 123.864C342.119 124.493 342.224 125.025 342.435 125.458C342.646 125.891 342.931 126.219 343.291 126.442C343.651 126.664 344.055 126.776 344.505 126.776C344.922 126.776 345.289 126.687 345.606 126.509C345.926 126.329 346.174 126.076 346.352 125.749C346.532 125.42 346.622 125.033 346.622 124.588L346.892 124.645H344.704V123.864H347.474V124.645C347.474 125.244 347.346 125.765 347.09 126.207C346.837 126.65 346.487 126.993 346.039 127.237C345.594 127.479 345.083 127.599 344.505 127.599C343.861 127.599 343.295 127.448 342.808 127.145C342.322 126.842 341.944 126.411 341.671 125.852C341.401 125.294 341.267 124.631 341.267 123.864C341.267 123.288 341.343 122.771 341.497 122.312C341.654 121.85 341.874 121.457 342.158 121.133C342.442 120.808 342.778 120.56 343.166 120.387C343.555 120.214 343.982 120.128 344.448 120.128C344.832 120.128 345.189 120.186 345.521 120.302C345.855 120.415 346.152 120.578 346.412 120.788C346.675 120.997 346.894 121.246 347.069 121.538C347.244 121.826 347.365 122.147 347.431 122.5H346.522ZM354.806 123.473V124.254H351.624V123.473H354.806ZM361.309 127.614C360.798 127.614 360.357 127.493 359.988 127.251C359.619 127.01 359.335 126.677 359.136 126.254C358.937 125.83 358.838 125.346 358.838 124.801C358.838 124.247 358.939 123.758 359.143 123.335C359.349 122.908 359.635 122.576 360.002 122.337C360.372 122.095 360.802 121.974 361.295 121.974C361.678 121.974 362.024 122.045 362.332 122.188C362.64 122.33 362.892 122.528 363.088 122.784C363.285 123.04 363.407 123.338 363.454 123.679H362.616C362.552 123.43 362.41 123.21 362.19 123.018C361.972 122.824 361.678 122.727 361.309 122.727C360.982 122.727 360.696 122.812 360.45 122.983C360.206 123.151 360.015 123.389 359.878 123.697C359.743 124.002 359.676 124.361 359.676 124.773C359.676 125.194 359.742 125.561 359.874 125.874C360.009 126.186 360.199 126.429 360.443 126.602C360.689 126.774 360.978 126.861 361.309 126.861C361.527 126.861 361.725 126.823 361.902 126.747C362.08 126.671 362.23 126.562 362.353 126.42C362.476 126.278 362.564 126.108 362.616 125.909H363.454C363.407 126.231 363.289 126.521 363.102 126.779C362.918 127.035 362.673 127.238 362.367 127.39C362.064 127.539 361.712 127.614 361.309 127.614ZM366.284 127.628C365.939 127.628 365.625 127.563 365.343 127.433C365.061 127.3 364.838 127.109 364.672 126.861C364.506 126.61 364.423 126.307 364.423 125.952C364.423 125.639 364.485 125.386 364.608 125.192C364.731 124.995 364.896 124.841 365.102 124.73C365.308 124.619 365.535 124.536 365.784 124.482C366.035 124.425 366.287 124.38 366.54 124.347C366.871 124.304 367.14 124.272 367.346 124.251C367.554 124.227 367.706 124.188 367.801 124.134C367.898 124.079 367.946 123.984 367.946 123.849V123.821C367.946 123.471 367.85 123.198 367.659 123.004C367.469 122.81 367.182 122.713 366.796 122.713C366.396 122.713 366.082 122.801 365.855 122.976C365.627 123.151 365.468 123.338 365.375 123.537L364.58 123.253C364.722 122.921 364.911 122.663 365.148 122.479C365.387 122.292 365.647 122.161 365.929 122.088C366.213 122.012 366.493 121.974 366.767 121.974C366.942 121.974 367.144 121.996 367.371 122.038C367.601 122.079 367.822 122.163 368.035 122.29C368.25 122.418 368.429 122.611 368.571 122.869C368.713 123.127 368.784 123.473 368.784 123.906V127.5H367.946V126.761H367.904C367.847 126.88 367.752 127.006 367.619 127.141C367.487 127.276 367.311 127.391 367.09 127.486C366.87 127.58 366.602 127.628 366.284 127.628ZM366.412 126.875C366.744 126.875 367.023 126.81 367.25 126.68C367.48 126.549 367.653 126.381 367.769 126.175C367.887 125.969 367.946 125.753 367.946 125.526V124.759C367.911 124.801 367.833 124.84 367.712 124.876C367.593 124.909 367.456 124.938 367.3 124.964C367.146 124.988 366.996 125.009 366.849 125.028C366.704 125.045 366.587 125.059 366.497 125.071C366.28 125.099 366.076 125.146 365.887 125.21C365.7 125.271 365.548 125.365 365.432 125.49C365.318 125.613 365.262 125.781 365.262 125.994C365.262 126.286 365.369 126.506 365.585 126.655C365.802 126.802 366.078 126.875 366.412 126.875ZM371.152 124.219V127.5H370.314V122.045H371.124V122.898H371.195C371.322 122.621 371.517 122.398 371.777 122.23C372.037 122.06 372.374 121.974 372.786 121.974C373.155 121.974 373.478 122.05 373.755 122.202C374.032 122.351 374.247 122.578 374.401 122.884C374.555 123.187 374.632 123.57 374.632 124.034V127.5H373.794V124.091C373.794 123.662 373.683 123.329 373.46 123.089C373.238 122.848 372.932 122.727 372.544 122.727C372.277 122.727 372.037 122.785 371.827 122.901C371.618 123.017 371.454 123.187 371.333 123.409C371.212 123.632 371.152 123.902 371.152 124.219ZM377.002 124.219V127.5H376.164V122.045H376.973V122.898H377.044C377.172 122.621 377.366 122.398 377.627 122.23C377.887 122.06 378.223 121.974 378.635 121.974C379.004 121.974 379.328 122.05 379.605 122.202C379.882 122.351 380.097 122.578 380.251 122.884C380.405 123.187 380.482 123.57 380.482 124.034V127.5H379.644V124.091C379.644 123.662 379.532 123.329 379.31 123.089C379.087 122.848 378.782 122.727 378.394 122.727C378.126 122.727 377.887 122.785 377.676 122.901C377.468 123.017 377.303 123.187 377.183 123.409C377.062 123.632 377.002 123.902 377.002 124.219ZM384.229 127.614C383.737 127.614 383.305 127.496 382.933 127.262C382.564 127.028 382.275 126.7 382.066 126.278C381.86 125.857 381.757 125.365 381.757 124.801C381.757 124.233 381.86 123.737 382.066 123.313C382.275 122.889 382.564 122.56 382.933 122.326C383.305 122.092 383.737 121.974 384.229 121.974C384.721 121.974 385.152 122.092 385.522 122.326C385.893 122.56 386.182 122.889 386.388 123.313C386.596 123.737 386.701 124.233 386.701 124.801C386.701 125.365 386.596 125.857 386.388 126.278C386.182 126.7 385.893 127.028 385.522 127.262C385.152 127.496 384.721 127.614 384.229 127.614ZM384.229 126.861C384.603 126.861 384.911 126.765 385.152 126.573C385.394 126.381 385.573 126.129 385.689 125.817C385.805 125.504 385.863 125.166 385.863 124.801C385.863 124.437 385.805 124.097 385.689 123.782C385.573 123.467 385.394 123.213 385.152 123.018C384.911 122.824 384.603 122.727 384.229 122.727C383.855 122.727 383.547 122.824 383.306 123.018C383.064 123.213 382.886 123.467 382.77 123.782C382.654 124.097 382.596 124.437 382.596 124.801C382.596 125.166 382.654 125.504 382.77 125.817C382.886 126.129 383.064 126.381 383.306 126.573C383.547 126.765 383.855 126.861 384.229 126.861ZM390.352 122.045V122.756H387.525V122.045H390.352ZM388.349 120.739H389.187V125.938C389.187 126.174 389.222 126.352 389.29 126.47C389.361 126.586 389.451 126.664 389.56 126.705C389.671 126.742 389.789 126.761 389.912 126.761C390.004 126.761 390.08 126.757 390.139 126.747C390.198 126.735 390.246 126.726 390.281 126.719L390.452 127.472C390.395 127.493 390.315 127.514 390.214 127.536C390.112 127.559 389.983 127.571 389.827 127.571C389.59 127.571 389.358 127.52 389.131 127.418C388.906 127.317 388.719 127.161 388.569 126.953C388.423 126.745 388.349 126.482 388.349 126.165V120.739ZM396.485 127.614C396.03 127.614 395.629 127.499 395.281 127.269C394.933 127.037 394.661 126.71 394.464 126.289C394.268 125.865 394.17 125.365 394.17 124.787C394.17 124.214 394.268 123.717 394.464 123.295C394.661 122.874 394.934 122.549 395.285 122.319C395.635 122.089 396.04 121.974 396.499 121.974C396.854 121.974 397.135 122.034 397.341 122.152C397.549 122.268 397.708 122.401 397.817 122.55C397.928 122.696 398.014 122.817 398.076 122.912H398.147V120.227H398.985V127.5H398.175V126.662H398.076C398.014 126.761 397.927 126.887 397.813 127.038C397.699 127.187 397.537 127.321 397.327 127.44C397.116 127.556 396.835 127.614 396.485 127.614ZM396.599 126.861C396.935 126.861 397.219 126.773 397.451 126.598C397.683 126.42 397.859 126.175 397.98 125.863C398.101 125.548 398.161 125.185 398.161 124.773C398.161 124.366 398.102 124.009 397.983 123.704C397.865 123.396 397.69 123.157 397.458 122.987C397.226 122.814 396.939 122.727 396.599 122.727C396.243 122.727 395.948 122.818 395.711 123.001C395.476 123.181 395.3 123.426 395.182 123.736C395.066 124.044 395.008 124.389 395.008 124.773C395.008 125.161 395.067 125.514 395.185 125.831C395.306 126.146 395.483 126.397 395.718 126.584C395.955 126.768 396.248 126.861 396.599 126.861ZM400.636 127.5V122.045H401.474V127.5H400.636ZM401.062 121.136C400.899 121.136 400.758 121.081 400.64 120.969C400.524 120.858 400.466 120.724 400.466 120.568C400.466 120.412 400.524 120.278 400.64 120.167C400.758 120.056 400.899 120 401.062 120C401.226 120 401.365 120.056 401.481 120.167C401.6 120.278 401.659 120.412 401.659 120.568C401.659 120.724 401.6 120.858 401.481 120.969C401.365 121.081 401.226 121.136 401.062 121.136ZM406.873 123.267L406.12 123.48C406.073 123.355 406.003 123.233 405.911 123.114C405.821 122.994 405.697 122.894 405.541 122.816C405.385 122.738 405.185 122.699 404.941 122.699C404.607 122.699 404.329 122.776 404.107 122.93C403.886 123.081 403.776 123.274 403.776 123.509C403.776 123.717 403.852 123.881 404.004 124.002C404.155 124.123 404.392 124.223 404.714 124.304L405.523 124.503C406.011 124.621 406.375 124.802 406.614 125.046C406.853 125.288 406.972 125.599 406.972 125.98C406.972 126.293 406.882 126.572 406.702 126.818C406.525 127.064 406.276 127.259 405.957 127.401C405.637 127.543 405.265 127.614 404.842 127.614C404.285 127.614 403.825 127.493 403.46 127.251C403.096 127.01 402.865 126.657 402.768 126.193L403.563 125.994C403.639 126.288 403.782 126.508 403.993 126.655C404.206 126.802 404.484 126.875 404.827 126.875C405.218 126.875 405.528 126.792 405.758 126.626C405.99 126.458 406.106 126.257 406.106 126.023C406.106 125.833 406.04 125.675 405.907 125.547C405.774 125.417 405.571 125.32 405.296 125.256L404.387 125.043C403.888 124.924 403.521 124.741 403.286 124.492C403.054 124.241 402.938 123.928 402.938 123.551C402.938 123.243 403.025 122.971 403.197 122.734C403.373 122.498 403.611 122.312 403.911 122.177C404.214 122.042 404.558 121.974 404.941 121.974C405.481 121.974 405.905 122.093 406.212 122.33C406.522 122.566 406.743 122.879 406.873 123.267ZM408.234 129.545V122.045H409.044V122.912H409.143C409.204 122.817 409.29 122.696 409.399 122.55C409.51 122.401 409.669 122.268 409.874 122.152C410.083 122.034 410.365 121.974 410.72 121.974C411.179 121.974 411.584 122.089 411.934 122.319C412.285 122.549 412.558 122.874 412.754 123.295C412.951 123.717 413.049 124.214 413.049 124.787C413.049 125.365 412.951 125.865 412.754 126.289C412.558 126.71 412.286 127.037 411.938 127.269C411.59 127.499 411.188 127.614 410.734 127.614C410.383 127.614 410.103 127.556 409.892 127.44C409.682 127.321 409.519 127.187 409.406 127.038C409.292 126.887 409.204 126.761 409.143 126.662H409.072V129.545H408.234ZM409.058 124.773C409.058 125.185 409.118 125.548 409.239 125.863C409.36 126.175 409.536 126.42 409.768 126.598C410 126.773 410.284 126.861 410.62 126.861C410.971 126.861 411.263 126.768 411.497 126.584C411.734 126.397 411.912 126.146 412.03 125.831C412.151 125.514 412.211 125.161 412.211 124.773C412.211 124.389 412.152 124.044 412.034 123.736C411.918 123.426 411.741 123.181 411.504 123.001C411.27 122.818 410.975 122.727 410.62 122.727C410.279 122.727 409.993 122.814 409.761 122.987C409.529 123.157 409.354 123.396 409.235 123.704C409.117 124.009 409.058 124.366 409.058 124.773ZM415.166 120.227V127.5H414.328V120.227H415.166ZM418.306 127.628C417.96 127.628 417.646 127.563 417.365 127.433C417.083 127.3 416.859 127.109 416.694 126.861C416.528 126.61 416.445 126.307 416.445 125.952C416.445 125.639 416.507 125.386 416.63 125.192C416.753 124.995 416.917 124.841 417.123 124.73C417.329 124.619 417.556 124.536 417.805 124.482C418.056 124.425 418.308 124.38 418.561 124.347C418.893 124.304 419.162 124.272 419.368 124.251C419.576 124.227 419.727 124.188 419.822 124.134C419.919 124.079 419.968 123.984 419.968 123.849V123.821C419.968 123.471 419.872 123.198 419.68 123.004C419.491 122.81 419.203 122.713 418.817 122.713C418.417 122.713 418.103 122.801 417.876 122.976C417.649 123.151 417.489 123.338 417.397 123.537L416.601 123.253C416.743 122.921 416.933 122.663 417.169 122.479C417.408 122.292 417.669 122.161 417.951 122.088C418.235 122.012 418.514 121.974 418.789 121.974C418.964 121.974 419.165 121.996 419.392 122.038C419.622 122.079 419.843 122.163 420.056 122.29C420.272 122.418 420.451 122.611 420.593 122.869C420.735 123.127 420.806 123.473 420.806 123.906V127.5H419.968V126.761H419.925C419.868 126.88 419.774 127.006 419.641 127.141C419.508 127.276 419.332 127.391 419.112 127.486C418.892 127.58 418.623 127.628 418.306 127.628ZM418.434 126.875C418.765 126.875 419.044 126.81 419.272 126.68C419.501 126.549 419.674 126.381 419.79 126.175C419.908 125.969 419.968 125.753 419.968 125.526V124.759C419.932 124.801 419.854 124.84 419.733 124.876C419.615 124.909 419.478 124.938 419.321 124.964C419.167 124.988 419.017 125.009 418.87 125.028C418.726 125.045 418.609 125.059 418.519 125.071C418.301 125.099 418.097 125.146 417.908 125.21C417.721 125.271 417.569 125.365 417.453 125.49C417.34 125.613 417.283 125.781 417.283 125.994C417.283 126.286 417.391 126.506 417.606 126.655C417.824 126.802 418.1 126.875 418.434 126.875ZM422.68 129.545C422.538 129.545 422.411 129.534 422.3 129.51C422.189 129.489 422.112 129.467 422.069 129.446L422.282 128.707C422.486 128.759 422.666 128.778 422.822 128.764C422.978 128.75 423.117 128.68 423.237 128.555C423.36 128.432 423.473 128.232 423.575 127.955L423.731 127.528L421.714 122.045H422.623L424.129 126.392H424.186L425.691 122.045H426.6L424.285 128.295C424.181 128.577 424.052 128.81 423.898 128.995C423.744 129.182 423.565 129.321 423.362 129.411C423.16 129.5 422.933 129.545 422.68 129.545Z" fill="black"/>
</svg>
